<svg width="25" height="26" viewBox="0 0 25 26" fill="none" xmlns="http://www.w3.org/2000/svg">
<path d="M5 22.5L2.125 25.375C1.72917 25.7708 1.27584 25.8596 0.765002 25.6413C0.254169 25.4229 -0.000831298 25.0321 2.03583e-06 24.4688V5C2.03583e-06 4.3125 0.245002 3.72375 0.735002 3.23375C1.225 2.74375 1.81334 2.49917 2.5 2.5H15.125C15.0417 2.91667 15 3.33333 15 3.75C15 4.16667 15.0417 4.58333 15.125 5H2.5V20H22.5V9.875C22.9792 9.77083 23.4271 9.63 23.8438 9.4525C24.2604 9.275 24.6458 9.04083 25 8.75V20C25 20.6875 24.755 21.2763 24.265 21.7663C23.775 22.2563 23.1867 22.5008 22.5 22.5H5ZM13.75 17.5C14.1042 17.5 14.4013 17.38 14.6413 17.14C14.8813 16.9 15.0008 16.6033 15 16.25C15 15.8958 14.88 15.5987 14.64 15.3587C14.4 15.1187 14.1033 14.9992 13.75 15H6.25C5.89584 15 5.59875 15.12 5.35875 15.36C5.11875 15.6 4.99917 15.8967 5 16.25C5 16.6042 5.12 16.9013 5.36 17.1413C5.6 17.3813 5.89667 17.5008 6.25 17.5H13.75ZM18.75 13.75C19.1042 13.75 19.4013 13.63 19.6413 13.39C19.8813 13.15 20.0008 12.8533 20 12.5C20 12.1458 19.88 11.8487 19.64 11.6087C19.4 11.3687 19.1033 11.2492 18.75 11.25H6.25C5.89584 11.25 5.59875 11.37 5.35875 11.61C5.11875 11.85 4.99917 12.1467 5 12.5C5 12.8542 5.12 13.1513 5.36 13.3913C5.6 13.6313 5.89667 13.7508 6.25 13.75H18.75ZM16.25 7.5H6.25C5.89584 7.5 5.59875 7.62 5.35875 7.86C5.11875 8.1 4.99917 8.39667 5 8.75C5 9.10417 5.12 9.40125 5.36 9.64125C5.6 9.88125 5.89667 10.0008 6.25 10H20V9.875C19.2292 9.70833 18.5258 9.42167 17.89 9.015C17.2542 8.60833 16.7075 8.10333 16.25 7.5ZM21.25 7.5C20.2083 7.5 19.3229 7.13542 18.5938 6.40625C17.8646 5.67708 17.5 4.79167 17.5 3.75C17.5 2.70833 17.8646 1.82292 18.5938 1.09375C19.3229 0.364583 20.2083 0 21.25 0C22.2917 0 23.1771 0.364583 23.9063 1.09375C24.6354 1.82292 25 2.70833 25 3.75C25 4.79167 24.6354 5.67708 23.9063 6.40625C23.1771 7.13542 22.2917 7.5 21.25 7.5Z" fill="#C7C6C5"/>
</svg>
