<svg width="26" height="27" viewBox="0 0 26 27" fill="none" xmlns="http://www.w3.org/2000/svg">
<path d="M15.5011 26.6791H10.4988C10.1653 26.6791 9.87631 26.5679 9.63175 26.3456C9.38719 26.1233 9.24268 25.8453 9.19821 25.5119L8.79803 22.4104C8.50901 22.2993 8.23644 22.1659 7.98032 22.0102C7.7242 21.8546 7.4743 21.6879 7.23063 21.51L4.32929 22.7106C4.01803 22.8217 3.70677 22.8328 3.39552 22.7439C3.08426 22.655 2.8397 22.466 2.66184 22.177L0.19403 17.875C0.0161691 17.586 -0.0394123 17.2747 0.0272854 16.9412C0.0939831 16.6077 0.260727 16.3409 0.527518 16.1408L3.02868 14.24C3.00645 14.0843 2.99533 13.934 2.99533 13.7891V12.89C2.99533 12.745 3.00645 12.5947 3.02868 12.4391L0.527518 10.5382C0.260727 10.3381 0.0939831 10.0713 0.0272854 9.73786C-0.0394123 9.40437 0.0161691 9.09312 0.19403 8.80409L2.66184 4.50209C2.81747 4.19084 3.05625 3.99608 3.37818 3.91782C3.7001 3.83956 4.01714 3.85646 4.32929 3.96851L7.23063 5.16907C7.47519 4.99121 7.73087 4.82446 7.99766 4.66884C8.26445 4.51321 8.53124 4.37981 8.79803 4.26865L9.19821 1.16721C9.24268 0.833721 9.38719 0.555814 9.63175 0.333488C9.87631 0.111163 10.1653 0 10.4988 0H15.5011C15.8346 0 16.1237 0.111163 16.3682 0.333488C16.6128 0.555814 16.7573 0.833721 16.8018 1.16721L17.2019 4.26865C17.491 4.37981 17.7635 4.51321 18.0196 4.66884C18.2758 4.82446 18.5257 4.99121 18.7693 5.16907L21.6707 3.96851C21.9819 3.85735 22.2932 3.84623 22.6044 3.93516C22.9157 4.02409 23.1603 4.21307 23.3381 4.50209L25.8059 8.80409C25.9838 9.09312 26.0394 9.40437 25.9727 9.73786C25.906 10.0713 25.7392 10.3381 25.4724 10.5382L22.9713 12.4391C22.9935 12.5947 23.0046 12.745 23.0046 12.89V13.7891C23.0046 13.934 22.9824 14.0843 22.9379 14.24L25.4391 16.1408C25.7059 16.3409 25.8726 16.6077 25.9393 16.9412C26.006 17.2747 25.9504 17.586 25.7726 17.875L23.3048 22.1436C23.1269 22.4327 22.8766 22.6274 22.5538 22.7279C22.2309 22.8284 21.9143 22.8226 21.604 22.7106L18.7693 21.51C18.5248 21.6879 18.2691 21.8546 18.0023 22.0102C17.7355 22.1659 17.4687 22.2993 17.2019 22.4104L16.8018 25.5119C16.7573 25.8453 16.6128 26.1233 16.3682 26.3456C16.1237 26.5679 15.8346 26.6791 15.5011 26.6791ZM13.0667 18.0084C14.3562 18.0084 15.4567 17.5526 16.3682 16.6411C17.2797 15.7295 17.7355 14.629 17.7355 13.3395C17.7355 12.05 17.2797 10.9495 16.3682 10.038C15.4567 9.12646 14.3562 8.6707 13.0667 8.6707C11.755 8.6707 10.6487 9.12646 9.7478 10.038C8.84694 10.9495 8.39695 12.05 8.39784 13.3395C8.39784 14.629 8.84783 15.7295 9.7478 16.6411C10.6478 17.5526 11.7541 18.0084 13.0667 18.0084Z" fill="#242760"/>
</svg>
