<svg width="20" height="22" viewBox="0 0 20 22" fill="none" xmlns="http://www.w3.org/2000/svg">
<path d="M2.5 19.375H6.25V11.875H13.75V19.375H17.5V8.125L10 2.5L2.5 8.125V19.375ZM2.5 21.875C1.8125 21.875 1.22375 21.63 0.733752 21.14C0.243752 20.65 -0.000831211 20.0617 2.12224e-06 19.375V8.125C2.12224e-06 7.72917 0.0887519 7.35417 0.266252 7C0.443752 6.64583 0.688336 6.35417 1 6.125L8.5 0.5C8.72917 0.333333 8.96875 0.208333 9.21875 0.125C9.46875 0.0416665 9.72917 0 10 0C10.2708 0 10.5313 0.0416665 10.7813 0.125C11.0313 0.208333 11.2708 0.333333 11.5 0.5L19 6.125C19.3125 6.35417 19.5575 6.64583 19.735 7C19.9125 7.35417 20.0008 7.72917 20 8.125V19.375C20 20.0625 19.755 20.6513 19.265 21.1413C18.775 21.6313 18.1867 21.8758 17.5 21.875H11.25V14.375H8.75V21.875H2.5Z" fill="#C7C6C5"/>
</svg>
