<svg width="25" height="25" viewBox="0 0 25 25" fill="none" xmlns="http://www.w3.org/2000/svg">
<path d="M12.5 0C5.6 0 0 5.6 0 12.5C0 19.4 5.6 25 12.5 25H22.5C23.875 25 25 23.875 25 22.5V12.5C25 5.6 19.4 0 12.5 0ZM12.5 22.5C8.8875 22.5 5.7125 20.575 3.9625 17.7L7.65 14.0125L11.7625 17.5L17.5 11.775V13.75H20V7.5H13.75V10H15.725L11.625 14.1L7.5 10.625L2.8875 15.25C2.6375 14.375 2.5 13.45 2.5 12.5C2.5 6.9875 6.9875 2.5 12.5 2.5C18.0125 2.5 22.5 6.9875 22.5 12.5C22.5 18.0125 18.0125 22.5 12.5 22.5ZM21.875 23.125C21.1875 23.125 20.625 22.5625 20.625 21.875C20.625 21.1875 21.1875 20.625 21.875 20.625C22.5625 20.625 23.125 21.1875 23.125 21.875C23.125 22.5625 22.5625 23.125 21.875 23.125Z" fill="#544C4C"/>
</svg>
