<svg width="26" height="26" viewBox="0 0 26 26" fill="none" xmlns="http://www.w3.org/2000/svg">
<path d="M13 7.83441V18.1655M1.37752 13C1.37752 14.5262 1.67815 16.0376 2.26223 17.4477C2.84631 18.8578 3.70242 20.139 4.78167 21.2183C5.86091 22.2975 7.14217 23.1536 8.55227 23.7377C9.96237 24.3218 11.4737 24.6224 13 24.6224C14.5263 24.6224 16.0376 24.3218 17.4477 23.7377C18.8578 23.1536 20.1391 22.2975 21.2183 21.2183C22.2976 20.139 23.1537 18.8578 23.7378 17.4477C24.3219 16.0376 24.6225 14.5262 24.6225 13C24.6225 11.4737 24.3219 9.96233 23.7378 8.55223C23.1537 7.14212 22.2976 5.86087 21.2183 4.78162C20.1391 3.70238 18.8578 2.84627 17.4477 2.26219C16.0376 1.6781 14.5263 1.37748 13 1.37748C11.4737 1.37748 9.96237 1.6781 8.55227 2.26219C7.14217 2.84627 5.86091 3.70238 4.78167 4.78162C3.70242 5.86087 2.84631 7.14212 2.26223 8.55223C1.67815 9.96233 1.37752 11.4737 1.37752 13Z" stroke="#544C4C" stroke-width="2.66667" stroke-linecap="round" stroke-linejoin="round"/>
</svg>
